<svg width="16" height="16" viewBox="0 0 16 16" fill="none" xmlns="http://www.w3.org/2000/svg">
<path opacity="0.4" d="M7.9632 1.16669H8.0394C9.50026 1.16668 10.6477 1.16667 11.5436 1.28708C12.4616 1.41047 13.19 1.6685 13.7623 2.24063C14.3345 2.81276 14.5927 3.54093 14.7161 4.4587C14.8036 5.10937 14.8275 5.89278 14.8341 6.83262C14.8363 7.14629 14.8373 7.30309 14.7395 7.40155C14.6417 7.50002 14.4841 7.50002 14.1689 7.50002H1.83376C1.5185 7.50002 1.36087 7.50002 1.26307 7.40155C1.16528 7.30309 1.16637 7.14629 1.16855 6.83262C1.17509 5.89278 1.19902 5.10937 1.28653 4.4587C1.40995 3.54093 1.66805 2.81276 2.24033 2.24063C2.81262 1.6685 3.54099 1.41047 4.45901 1.28708C5.35487 1.16667 6.50231 1.16668 7.9632 1.16669Z" fill="#6FDDFF"/>
<path d="M5.33331 3.33331C4.78103 3.33331 4.33331 3.78103 4.33331 4.33331C4.33331 4.8856 4.78103 5.33331 5.33331 5.33331C5.8856 5.33331 6.33331 4.8856 6.33331 4.33331C6.33331 3.78103 5.8856 3.33331 5.33331 3.33331Z" fill="#6FDDFF"/>
<path d="M8.5 3.83331C8.22387 3.83331 8 4.05717 8 4.33331C8 4.60945 8.22387 4.83331 8.5 4.83331H11.1667C11.4428 4.83331 11.6667 4.60945 11.6667 4.33331C11.6667 4.05717 11.4428 3.83331 11.1667 3.83331H8.5Z" fill="#6FDDFF"/>
<path opacity="0.4" d="M1.83376 8.5H14.1689C14.4841 8.5 14.6417 8.5 14.7395 8.59847C14.8373 8.69693 14.8363 8.85373 14.8341 9.1674C14.8275 10.1073 14.8036 10.8907 14.7161 11.5413C14.5927 12.4591 14.3345 13.1873 13.7623 13.7594C13.19 14.3315 12.4616 14.5895 11.5436 14.7129C10.6477 14.8333 9.50026 14.8333 8.0394 14.8333H7.96313C6.50229 14.8333 5.35487 14.8333 4.45901 14.7129C3.54099 14.5895 2.81262 14.3315 2.24033 13.7594C1.66804 13.1873 1.40995 12.4591 1.28653 11.5413C1.19902 10.8907 1.17509 10.1073 1.16855 9.1674C1.16637 8.85373 1.16528 8.69693 1.26307 8.59847C1.36087 8.5 1.5185 8.5 1.83376 8.5Z" fill="#6FDDFF"/>
<path fill-rule="evenodd" clip-rule="evenodd" d="M5.33331 10.6667C4.78103 10.6667 4.33331 11.1144 4.33331 11.6667C4.33331 12.219 4.78103 12.6667 5.33331 12.6667C5.8856 12.6667 6.33331 12.219 6.33331 11.6667C6.33331 11.1144 5.8856 10.6667 5.33331 10.6667ZM8.49998 11.1667C8.22385 11.1667 7.99998 11.3906 7.99998 11.6667C7.99998 11.9428 8.22385 12.1667 8.49998 12.1667H11.1666C11.4428 12.1667 11.6666 11.9428 11.6666 11.6667C11.6666 11.3906 11.4428 11.1667 11.1666 11.1667H8.49998Z" fill="#6FDDFF"/>
</svg>
