<svg width="16" height="16" viewBox="0 0 16 16" fill="none" xmlns="http://www.w3.org/2000/svg">
<path opacity="0.4" d="M6.66666 6.66665C6.66666 7.40305 7.26359 7.99998 7.99999 7.99998C8.73639 7.99998 9.33332 7.40305 9.33332 6.66665C9.33332 5.93027 8.73639 5.33331 7.99999 5.33331C7.26359 5.33331 6.66666 5.93027 6.66666 6.66665Z" fill="#6FDDFF"/>
<path opacity="0.4" d="M2 12.3333C2 11.397 2 10.9289 2.20223 10.5926C2.28979 10.447 2.40229 10.322 2.53331 10.2247C2.83599 10 3.25732 10 4.1 10H11.9C12.7427 10 13.164 10 13.4667 10.2247C13.5977 10.322 13.7102 10.447 13.7977 10.5926C14 10.9289 14 11.397 14 12.3333C14 13.2697 14 13.7378 13.7977 14.0741C13.7102 14.2197 13.5977 14.3447 13.4667 14.4419C13.164 14.6667 12.7427 14.6667 11.9 14.6667H4.1C3.25732 14.6667 2.83599 14.6667 2.53331 14.4419C2.40229 14.3447 2.28979 14.2197 2.20223 14.0741C2 13.7378 2 13.2697 2 12.3333Z" fill="#6FDDFF"/>
<path d="M6.66666 6.66665C6.66666 7.40305 7.26359 7.99998 7.99999 7.99998C8.73639 7.99998 9.33332 7.40305 9.33332 6.66665C9.33332 5.93027 8.73639 5.33331 7.99999 5.33331C7.26359 5.33331 6.66666 5.93027 6.66666 6.66665Z" stroke="#6FDDFF" stroke-width="1.25"/>
<path d="M12.1636 9.99998C12.8955 9.08691 13.3333 7.92791 13.3333 6.66665C13.3333 3.72113 10.9455 1.33331 7.99999 1.33331C5.05447 1.33331 2.66666 3.72113 2.66666 6.66665C2.66666 7.92791 3.10447 9.08691 3.83641 9.99998" stroke="#6FDDFF" stroke-width="1.25" stroke-linecap="round"/>
<path d="M2 12.3333C2 11.397 2 10.9289 2.20223 10.5926C2.28979 10.447 2.40229 10.322 2.53331 10.2247C2.83599 10 3.25732 10 4.1 10H11.9C12.7427 10 13.164 10 13.4667 10.2247C13.5977 10.322 13.7102 10.447 13.7977 10.5926C14 10.9289 14 11.397 14 12.3333C14 13.2697 14 13.7378 13.7977 14.0741C13.7102 14.2197 13.5977 14.3447 13.4667 14.4419C13.164 14.6667 12.7427 14.6667 11.9 14.6667H4.1C3.25732 14.6667 2.83599 14.6667 2.53331 14.4419C2.40229 14.3447 2.28979 14.2197 2.20223 14.0741C2 13.7378 2 13.2697 2 12.3333Z" stroke="#6FDDFF" stroke-width="1.25"/>
<path d="M7.33334 12H8.66668" stroke="#6FDDFF" stroke-width="1.25" stroke-linecap="round" stroke-linejoin="round"/>
<path d="M10.5937 4.40736L11.9347 3.06641" stroke="#6FDDFF" stroke-width="1.25" stroke-linecap="round" stroke-linejoin="round"/>
</svg>
