<svg width="1156" height="144" viewBox="0 0 1156 144" fill="none" xmlns="http://www.w3.org/2000/svg">
<path d="M111.94 73.41C140.82 73.41 155.26 82.5933 155.26 100.96C155.26 109.573 153.297 116.92 149.37 123C145.443 128.953 138.413 133.64 128.28 137.06C118.147 140.353 104.087 142 86.1 142H0.600001C1.61333 117.427 2.12 94.4367 2.12 73.03C2.12 51.6233 1.61333 28.6333 0.600001 4.06H45.25V4.25H85.72C101.427 4.25 113.777 5.57999 122.77 8.23999C131.89 10.7733 138.287 14.51 141.96 19.45C145.76 24.39 147.66 30.66 147.66 38.26C147.66 45.9867 144.937 52.89 139.49 58.97C134.17 64.9233 124.987 69.7367 111.94 73.41ZM45.25 38.83V56.5H81.73C89.5833 56.5 95.03 55.8033 98.07 54.41C101.237 53.0167 102.82 50.4833 102.82 46.81C102.82 43.8967 101.173 41.87 97.88 40.73C94.7133 39.4633 89.33 38.83 81.73 38.83H45.25ZM81.73 107.23C88.3167 107.23 93.32 106.977 96.74 106.47C100.287 105.837 102.82 104.823 104.34 103.43C105.86 101.91 106.62 99.8833 106.62 97.35C106.62 94.0567 104.783 91.7133 101.11 90.32C97.5633 88.8 91.1033 88.04 81.73 88.04H45.25V107.23H81.73ZM280.765 41.87C265.692 41.11 254.545 40.6667 247.325 40.54V105.52C254.672 105.393 265.819 104.95 280.765 104.19V142H170.375V104.19C184.942 104.95 196.025 105.393 203.625 105.52V40.54C196.025 40.6667 184.942 41.11 170.375 41.87V4.06H280.765V41.87ZM459.201 43.96C439.314 43.3267 419.997 42.9467 401.251 42.82V142H353.751V42.82C334.877 42.9467 315.624 43.3267 295.991 43.96V4.06H459.201V43.96ZM633.707 4.06C632.82 25.4667 632.377 48.4567 632.377 73.03C632.377 97.6033 632.82 120.593 633.707 142H589.057V90.32H519.137V142H474.487C475.5 117.427 476.007 94.4367 476.007 73.03C476.007 51.6233 475.5 28.6333 474.487 4.06H519.137V55.74H589.057V4.06H633.707ZM768.791 142C766.384 134.78 763.154 125.723 759.101 114.83H698.491L688.991 142H641.301L694.501 4.06H764.421L818.001 142H768.791ZM748.271 85.19C743.457 71.89 738.517 58.59 733.451 45.29L728.891 32.94C724.457 44.4667 717.934 61.8833 709.321 85.19H748.271ZM820.532 125.66C824.838 119.2 828.385 113.183 831.172 107.61C834.085 102.037 836.872 95.5767 839.532 88.23C848.525 93.4233 858.975 97.4767 870.882 100.39C882.788 103.303 893.872 104.76 904.132 104.76C914.645 104.76 922.055 103.873 926.362 102.1C930.668 100.2 932.822 98.1733 932.822 96.02C932.822 88.2933 921.042 84.43 897.482 84.43C871.642 84.43 852.895 81.77 841.242 76.45C829.588 71.0033 823.762 62.2633 823.762 50.23C823.762 33.13 830.855 20.5267 845.042 12.42C859.228 4.31332 877.658 0.25999 900.332 0.25999C913.505 0.25999 926.995 1.96999 940.802 5.38999C954.735 8.68333 967.275 13.2433 978.422 19.07C974.748 27.43 970.885 37.6267 966.832 49.66C966.072 52.1933 965.438 54.0933 964.932 55.36C958.472 50.1667 948.718 45.86 935.672 42.44C922.625 38.8933 911.098 37.12 901.092 37.12C889.058 37.12 880.952 37.9433 876.772 39.59C872.592 41.11 870.502 43.39 870.502 46.43C870.502 49.47 873.352 51.94 879.052 53.84C884.878 55.6133 893.238 56.5 904.132 56.5C930.985 56.5 950.492 59.6033 962.652 65.81C974.812 71.89 980.892 81.2633 980.892 93.93C980.892 111.663 974.432 124.457 961.512 132.31C948.592 140.037 929.022 143.9 902.802 143.9C888.742 143.9 874.428 142.38 859.862 139.34C845.295 136.173 832.185 131.613 820.532 125.66ZM1155.28 4.06C1154.39 25.4667 1153.95 48.4567 1153.95 73.03C1153.95 97.6033 1154.39 120.593 1155.28 142H1110.63V90.32H1040.71V142H996.059C997.072 117.427 997.579 94.4367 997.579 73.03C997.579 51.6233 997.072 28.6333 996.059 4.06H1040.71V55.74H1110.63V4.06H1155.28Z" fill="white"/>
</svg>
